<mxfile host="65bd71144e">
    <diagram id="kBogndTjWl47UEeQ5Qpe" name="Página-1">
        <mxGraphModel dx="2248" dy="2342" grid="1" gridSize="10" guides="1" tooltips="1" connect="1" arrows="1" fold="1" page="1" pageScale="1" pageWidth="827" pageHeight="1169" math="0" shadow="0">
            <root>
                <mxCell id="0"/>
                <mxCell id="1" parent="0"/>
                <mxCell id="2" value="" style="whiteSpace=wrap;html=1;aspect=fixed;" vertex="1" parent="1">
                    <mxGeometry x="79" y="-590" width="670" height="670" as="geometry"/>
                </mxCell>
                <mxCell id="3" value="acceso_datos" style="rounded=0;whiteSpace=wrap;html=1;" vertex="1" parent="1">
                    <mxGeometry x="79" y="-600" width="90" height="10" as="geometry"/>
                </mxCell>
                <mxCell id="4" value="conexion" style="swimlane;fontStyle=0;childLayout=stackLayout;horizontal=1;startSize=30;horizontalStack=0;resizeParent=1;resizeParentMax=0;resizeLast=0;collapsible=1;marginBottom=0;whiteSpace=wrap;html=1;" vertex="1" parent="1">
                    <mxGeometry x="99" y="-560" width="190" height="280" as="geometry"/>
                </mxCell>
                <mxCell id="5" value="&lt;u&gt;&lt;b&gt;-DATABASE: String&lt;/b&gt;&lt;/u&gt;&lt;div&gt;&lt;u&gt;&lt;b&gt;-USERNAME: String&lt;/b&gt;&lt;/u&gt;&lt;/div&gt;&lt;div&gt;&lt;u&gt;&lt;b&gt;-PASSWORD: String&lt;/b&gt;&lt;/u&gt;&lt;/div&gt;&lt;div&gt;&lt;u&gt;&lt;b&gt;-DB PORT: String&lt;/b&gt;&lt;/u&gt;&lt;/div&gt;&lt;div&gt;&lt;u&gt;&lt;b&gt;-HOST: String&lt;/b&gt;&lt;/u&gt;&lt;/div&gt;&lt;div&gt;&lt;u&gt;&lt;b&gt;-conexion: connection&lt;/b&gt;&lt;/u&gt;&lt;/div&gt;&lt;div&gt;&lt;u&gt;&lt;b&gt;-cursor: Cursor&lt;/b&gt;&lt;/u&gt;&lt;/div&gt;" style="text;strokeColor=default;fillColor=none;align=left;verticalAlign=middle;spacingLeft=4;spacingRight=4;overflow=hidden;points=[[0,0.5],[1,0.5]];portConstraint=eastwest;rotatable=0;whiteSpace=wrap;html=1;" vertex="1" parent="4">
                    <mxGeometry y="30" width="190" height="120" as="geometry"/>
                </mxCell>
                <mxCell id="6" value="&lt;u&gt;&lt;b&gt;+obtenerConexion(ds): Connection&lt;/b&gt;&lt;/u&gt;&lt;div&gt;&lt;u&gt;&lt;b&gt;+obtenerCursor(ds): Cursor&lt;/b&gt;&lt;/u&gt;&lt;/div&gt;&lt;div&gt;&lt;u&gt;&lt;b&gt;+cerrar(ds)&lt;/b&gt;&lt;/u&gt;&lt;/div&gt;" style="text;strokeColor=default;fillColor=none;align=left;verticalAlign=middle;spacingLeft=4;spacingRight=4;overflow=hidden;points=[[0,0.5],[1,0.5]];portConstraint=eastwest;rotatable=0;whiteSpace=wrap;html=1;" vertex="1" parent="4">
                    <mxGeometry y="150" width="190" height="70" as="geometry"/>
                </mxCell>
                <mxCell id="7" value="&lt;b&gt;Responsabilidades: Administrar la conexión a la base de datos&lt;/b&gt;" style="text;strokeColor=default;fillColor=none;align=left;verticalAlign=middle;spacingLeft=4;spacingRight=4;overflow=hidden;points=[[0,0.5],[1,0.5]];portConstraint=eastwest;rotatable=0;whiteSpace=wrap;html=1;" vertex="1" parent="4">
                    <mxGeometry y="220" width="190" height="60" as="geometry"/>
                </mxCell>
                <mxCell id="8" value="Persona" style="swimlane;fontStyle=0;childLayout=stackLayout;horizontal=1;startSize=30;horizontalStack=0;resizeParent=1;resizeParentMax=0;resizeLast=0;collapsible=1;marginBottom=0;whiteSpace=wrap;html=1;" vertex="1" parent="1">
                    <mxGeometry x="489" y="-540" width="140" height="220" as="geometry"/>
                </mxCell>
                <mxCell id="9" value="&lt;b&gt;-id_persona: int&lt;/b&gt;&lt;div&gt;&lt;b&gt;-nombre: String&lt;/b&gt;&lt;/div&gt;&lt;div&gt;&lt;b&gt;-apellido: String&lt;/b&gt;&lt;/div&gt;&lt;div&gt;&lt;b&gt;-email: String&lt;/b&gt;&lt;/div&gt;" style="text;strokeColor=default;fillColor=none;align=left;verticalAlign=middle;spacingLeft=4;spacingRight=4;overflow=hidden;points=[[0,0.5],[1,0.5]];portConstraint=eastwest;rotatable=0;whiteSpace=wrap;html=1;" vertex="1" parent="8">
                    <mxGeometry y="30" width="140" height="70" as="geometry"/>
                </mxCell>
                <mxCell id="10" value="&lt;b&gt;+_str_(): String&lt;/b&gt;&lt;div&gt;&lt;b&gt;+metodo Get/Set de cada atributo&lt;/b&gt;&lt;/div&gt;" style="text;strokeColor=default;fillColor=none;align=left;verticalAlign=middle;spacingLeft=4;spacingRight=4;overflow=hidden;points=[[0,0.5],[1,0.5]];portConstraint=eastwest;rotatable=0;whiteSpace=wrap;html=1;" vertex="1" parent="8">
                    <mxGeometry y="100" width="140" height="60" as="geometry"/>
                </mxCell>
                <mxCell id="11" value="&lt;b&gt;Responsabilidades: Crear objetos de la entidad de Persona&lt;/b&gt;" style="text;strokeColor=default;fillColor=none;align=left;verticalAlign=middle;spacingLeft=4;spacingRight=4;overflow=hidden;points=[[0,0.5],[1,0.5]];portConstraint=eastwest;rotatable=0;whiteSpace=wrap;html=1;" vertex="1" parent="8">
                    <mxGeometry y="160" width="140" height="60" as="geometry"/>
                </mxCell>
                <mxCell id="16" value="PersonaDao" style="swimlane;fontStyle=0;childLayout=stackLayout;horizontal=1;startSize=30;horizontalStack=0;resizeParent=1;resizeParentMax=0;resizeLast=0;collapsible=1;marginBottom=0;whiteSpace=wrap;html=1;" vertex="1" parent="1">
                    <mxGeometry x="459" y="-240" width="210" height="250" as="geometry"/>
                </mxCell>
                <mxCell id="17" value="&lt;b&gt;&lt;u&gt;-SELECCIONAR: String&lt;/u&gt;&lt;/b&gt;&lt;div&gt;&lt;b&gt;&lt;u&gt;-INSERTAR: String&lt;/u&gt;&lt;/b&gt;&lt;/div&gt;&lt;div&gt;&lt;b&gt;&lt;u&gt;-ACTUALIZAR: String&lt;/u&gt;&lt;/b&gt;&lt;/div&gt;&lt;div&gt;&lt;b&gt;&lt;u&gt;-ELIMINAR: String&lt;/u&gt;&lt;/b&gt;&lt;/div&gt;" style="text;strokeColor=default;fillColor=none;align=left;verticalAlign=middle;spacingLeft=4;spacingRight=4;overflow=hidden;points=[[0,0.5],[1,0.5]];portConstraint=eastwest;rotatable=0;whiteSpace=wrap;html=1;" vertex="1" parent="16">
                    <mxGeometry y="30" width="210" height="70" as="geometry"/>
                </mxCell>
                <mxCell id="18" value="&lt;u&gt;&lt;b&gt;+seleccionar(ds)&lt;/b&gt;&lt;/u&gt;&lt;div&gt;&lt;u&gt;&lt;b&gt;+insertar(ds, persona)&lt;/b&gt;&lt;/u&gt;&lt;/div&gt;&lt;div&gt;&lt;u&gt;&lt;b&gt;+actualizar(ds, persona)&lt;/b&gt;&lt;/u&gt;&lt;/div&gt;&lt;div&gt;&lt;u&gt;&lt;b&gt;+eliminar(ds, persona)&lt;/b&gt;&lt;/u&gt;&lt;/div&gt;" style="text;strokeColor=default;fillColor=none;align=left;verticalAlign=middle;spacingLeft=4;spacingRight=4;overflow=hidden;points=[[0,0.5],[1,0.5]];portConstraint=eastwest;rotatable=0;whiteSpace=wrap;html=1;" vertex="1" parent="16">
                    <mxGeometry y="100" width="210" height="80" as="geometry"/>
                </mxCell>
                <mxCell id="19" value="&lt;b&gt;Responsabilidades: Realizar las operaciones sobre la base de datos de la entidad Persona&lt;/b&gt;" style="text;strokeColor=default;fillColor=none;align=left;verticalAlign=middle;spacingLeft=4;spacingRight=4;overflow=hidden;points=[[0,0.5],[1,0.5]];portConstraint=eastwest;rotatable=0;whiteSpace=wrap;html=1;" vertex="1" parent="16">
                    <mxGeometry y="180" width="210" height="70" as="geometry"/>
                </mxCell>
                <mxCell id="20" value="" style="endArrow=diamondThin;endFill=1;endSize=24;html=1;entryX=0.02;entryY=0.385;entryDx=0;entryDy=0;entryPerimeter=0;" edge="1" parent="1" target="18">
                    <mxGeometry width="160" relative="1" as="geometry">
                        <mxPoint x="169" y="-110" as="sourcePoint"/>
                        <mxPoint x="329" y="-110" as="targetPoint"/>
                    </mxGeometry>
                </mxCell>
                <mxCell id="21" value="" style="endArrow=diamondThin;endFill=1;endSize=24;html=1;entryX=0.5;entryY=0;entryDx=0;entryDy=0;exitX=0.529;exitY=0.994;exitDx=0;exitDy=0;exitPerimeter=0;" edge="1" parent="1" source="11" target="16">
                    <mxGeometry width="160" relative="1" as="geometry">
                        <mxPoint x="564" y="-300" as="sourcePoint"/>
                        <mxPoint x="729" y="-320" as="targetPoint"/>
                    </mxGeometry>
                </mxCell>
                <mxCell id="22" value="" style="endArrow=none;html=1;exitX=0.372;exitY=0.986;exitDx=0;exitDy=0;exitPerimeter=0;" edge="1" parent="1" source="7">
                    <mxGeometry width="50" height="50" relative="1" as="geometry">
                        <mxPoint x="169" y="-270" as="sourcePoint"/>
                        <mxPoint x="169" y="-110" as="targetPoint"/>
                    </mxGeometry>
                </mxCell>
            </root>
        </mxGraphModel>
    </diagram>
</mxfile>